<svg id="Layer_1" data-name="Layer 1" xmlns="http://www.w3.org/2000/svg" viewBox="0 0 993.27 849.41">
    <defs>
        <style>.cls-1{fill:#1d1d1b;}</style>
    </defs>
    <path class="cls-1"
          d="M315.06,924.71A73.59,73.59,0,0,1,263,903.25l-238-238-.14-.13a73.73,73.73,0,0,1,.08-104.15l94.17-94.22.15-.14a73.21,73.21,0,0,1,52-21.46h.05a73.22,73.22,0,0,1,52.09,21.61l91.7,91.74L776.6,96.91a.94.94,0,0,1,.1-.1h0a73.76,73.76,0,0,1,104.19.06L975,191l.12.11a73.74,73.74,0,0,1-.08,104.16L367.19,903.22A73.67,73.67,0,0,1,315.06,924.71ZM58.87,631l.1.1L297,869.17a25.69,25.69,0,0,0,36.17,0L941,261.24a25.51,25.51,0,0,0,.07-36,.3.3,0,0,0-.08-.08l-94.19-94.23a25.54,25.54,0,0,0-36.06-.07l-.08.07L332.09,609.55a24.07,24.07,0,0,1-17,7.05h0a24.11,24.11,0,0,1-17-7.05L189.3,500.77a25.3,25.3,0,0,0-18.05-7.5h0a25.33,25.33,0,0,0-18,7.47l-.11.1L59,595h0A25.52,25.52,0,0,0,58.87,631ZM42,578h0Z"
          transform="translate(-3.36 -75.29)"/>
</svg>
