<svg id="Layer_1" data-name="Layer 1" xmlns="http://www.w3.org/2000/svg" viewBox="0 0 988.73 987.82">
    <defs>
        <style>.cls-1{fill:#1d1d1b;}</style>
    </defs>
    <path class="cls-1"
          d="M969.88,871.33H30.12a24.49,24.49,0,0,1,0-49,98.2,98.2,0,0,0,98.09-98.09V458.68A371.52,371.52,0,0,1,357.76,115.49a147.08,147.08,0,0,1,284.32,0A371.81,371.81,0,0,1,871.79,458.66V724.27a98.2,98.2,0,0,0,98.09,98.09,24.49,24.49,0,0,1,0,49Zm-830.28-49H860.4a146.46,146.46,0,0,1-37.58-98.09V458.68c-.15-134.08-84.72-255.55-210.44-302.24a24.49,24.49,0,0,1-15.65-19,98.09,98.09,0,0,0-193.63,0,24.48,24.48,0,0,1-15.64,19C261.73,203.12,177.23,324.58,177.18,458.69V724.27A146.46,146.46,0,0,1,139.6,822.36Z"
          transform="translate(-5.64 -6.09)"/>
    <path class="cls-1"
          d="M500,993.91c-81.09,0-147.06-66-147.06-147.07a24.49,24.49,0,0,1,49,0,98.09,98.09,0,1,0,196.18,0,24.49,24.49,0,0,1,49,0C647.06,927.94,581.09,993.91,500,993.91Z"
          transform="translate(-5.64 -6.09)"/>
</svg>
