<?xml version="1.0" encoding="utf-8"?>
<!-- Generator: Adobe Illustrator 25.1.0, SVG Export Plug-In . SVG Version: 6.00 Build 0)  -->
<svg version="1.1" id="Layer_1" xmlns="http://www.w3.org/2000/svg" x="0px" y="0px"
     viewBox="0 0 1500 1500" style="enable-background:new 0 0 1500 1500;" xml:space="preserve">
<style type="text/css">
	.st0{fill:#0A97D9;}
	.st1{fill:#3F7E44;}
	.st2{fill:#FCC30B;}
	.st3{fill:#DD1367;}
	.st4{fill:#FD6925;}
	.st5{fill:#333333;}
</style>
    <g>
	<circle class="st0" cx="119.48" cy="680.97" r="101.95"/>
        <circle class="st1" cx="434.15" cy="680.97" r="101.95"/>
        <circle class="st2" cx="748.83" cy="680.97" r="101.95"/>
        <circle class="st3" cx="1378.17" cy="680.97" r="101.95"/>
        <circle class="st4" cx="1063.5" cy="680.97" r="101.95"/>
        <g>
		<g>
			<path class="st5" d="M16.27,412.22l87.9-83.24c41.24,26.1,93.27,44.45,136.32,44.45c46.63,0,66.37-11.99,66.37-32.45
				c0-21.87-29.6-28.93-78.92-44.45l-72.66-23.99C92.51,252.79,37.8,211.16,37.8,144.84c0-78.31,89.69-142.5,217.04-142.5
				c66.37,0,139.9,19.75,193.72,61.37l-77.13,76.19c-39.45-21.87-73.53-33.16-116.59-33.16c-37.66,0-60.98,10.58-60.98,31.04
				c0,21.87,33.18,29.63,86.09,45.86l70.85,21.87c72.66,22.57,113.9,62.07,113.9,125.57c0,77.61-82.51,146.75-227.8,146.75
				C163.36,477.83,79.06,456.66,16.27,412.22z"/>
            <path class="st5" d="M494.26,10.8h172.19C844.04,10.8,966,75.71,966,237.97s-121.96,231.4-290.57,231.4H494.26V10.8z
				 M657.5,372.01c84.3,0,150.67-26.81,150.67-134.04S741.79,108.16,657.5,108.16h-8.97v263.85H657.5z"/>
            <path class="st5" d="M981.24,243.61c0-153.8,134.51-241.27,290.57-241.27c86.09,0,148.88,28.22,190.14,60.67l-80.72,77.6
				c-28.71-19.75-57.4-33.86-104.05-33.86c-78.91,0-138.11,49.38-138.11,132.63c0,86.07,48.44,134.04,152.47,134.04
				c16.14,0,34.08-2.82,44.84-8.47v-63.49h-86.11v-98.77h222.41v218.7c-41.24,31.05-114.8,56.44-197.3,56.44
				C1112.17,477.83,981.24,400.23,981.24,243.61z"/>
		</g>
	</g>
        <path class="st5" d="M19.67,898.79H134.1l10.66,81.21h3.88c50.43-52.6,108.13-95.77,182.8-95.77
		c87.28,0,136.98,39.76,164.37,106.68c56.97-60.61,115.89-106.68,191.53-106.68c125.58,0,183.77,86.31,183.77,236.62v373.36H731.47
		v-355.42c0-97.95-29.1-134.8-91.64-134.8c-37.82,0-78.55,24.25-124.61,74.18v416.03H375.57v-355.42
		c0-97.95-29.09-134.8-91.64-134.8c-36.85,0-78.55,24.25-124.61,74.18v416.03H19.67V898.79z"/>
        <path class="st5" d="M963.46,1185.89c0-193.47,134.31-312.75,274.44-312.75c160.97,0,245.83,116.37,245.83,282.69
		c0,26.68-2.9,53.34-6.06,67.89h-377.96c11.64,105.7,79.52,165.83,175.53,165.83c50.91,0,94.55-16,138.2-43.15l47.51,86.79
		c-56.73,38.31-128.49,64.49-204.13,64.49C1092.43,1497.66,963.46,1382.26,963.46,1185.89z M1363,1128.67
		c0-91.64-40.73-147.41-122.19-147.41c-69.33,0-130.43,51.88-142.55,147.41H1363z"/>
</g>
</svg>
