<?xml version="1.0" encoding="utf-8"?>
<!-- Generator: Adobe Illustrator 25.1.0, SVG Export Plug-In . SVG Version: 6.00 Build 0)  -->
<svg version="1.1" id="Layer_1" xmlns="http://www.w3.org/2000/svg" x="0px" y="0px"
     viewBox="0 0 1000 1000" style="enable-background:new 0 0 1000 1000;" xml:space="preserve">
<style type="text/css">
	.st0{fill:#1D1D1B;}
</style>
    <g transform="matrix(5.833333333333333,0,0,5.833333333333333,0,0)">
	<g>
		<path class="st0" d="M121.92,170.27H49.51c-9.45,0-17.33-7.09-18.32-16.49L18.59,33.97c-0.26-2.47,1.53-4.68,4-4.94
			c2.47-0.26,4.68,1.53,4.94,4l12.61,119.81c0.51,4.81,4.54,8.44,9.38,8.44h72.4c4.84,0,8.86-3.63,9.37-8.44L143.9,33.03
			c0.26-2.47,2.47-4.26,4.94-4c2.47,0.26,4.26,2.47,4,4.94l-12.62,119.81C139.24,163.18,131.37,170.27,121.92,170.27z"/>
	</g>
        <g>
		<path class="st0" d="M165.78,37.99H5.65c-2.48,0-4.49-2.01-4.49-4.49S3.17,29,5.65,29h160.12c2.48,0,4.49,2.01,4.49,4.49
			S168.26,37.99,165.78,37.99z"/>
	</g>
        <g>
		<path class="st0" d="M117.04,37.99c-2.48,0-4.49-2.01-4.49-4.49V12.61c0-1.36-1.11-2.47-2.47-2.47H61.35
			c-1.36,0-2.47,1.11-2.47,2.47V33.5c0,2.48-2.01,4.49-4.49,4.49c-2.48,0-4.49-2.01-4.49-4.49V12.61c0-6.32,5.14-11.46,11.46-11.46
			h48.73c6.32,0,11.46,5.14,11.46,11.46V33.5C121.54,35.98,119.53,37.99,117.04,37.99z"/>
	</g>
        <g>
		<path class="st0" d="M85.71,142.42c-2.48,0-4.49-2.01-4.49-4.49v-73.1c0-2.48,2.01-4.49,4.49-4.49c2.48,0,4.49,2.01,4.49,4.49
			v73.1C90.21,140.41,88.2,142.42,85.71,142.42z"/>
	</g>
        <g>
		<path class="st0" d="M113.57,142.42c-0.07,0-0.14,0-0.22-0.01c-2.48-0.12-4.39-2.22-4.28-4.7l3.48-73.1
			c0.12-2.48,2.22-4.39,4.7-4.28c2.48,0.12,4.39,2.22,4.28,4.7l-3.48,73.1C117.94,140.55,115.95,142.42,113.57,142.42z"/>
	</g>
        <g>
		<path class="st0" d="M57.86,142.42c-2.38,0-4.37-1.87-4.49-4.28l-3.48-73.1c-0.12-2.48,1.8-4.59,4.28-4.7
			c2.48-0.12,4.59,1.8,4.7,4.28l3.48,73.1c0.12,2.48-1.8,4.59-4.28,4.7C58.01,142.42,57.94,142.42,57.86,142.42z"/>
	</g>
</g>
</svg>
